# xmcd CD database file
#
# Track frame offsets:
#	150
#	18707
#	41070
#	69862
#	93827
#	131032
#	153950
#	167692
#	187660
#	201982
#
# Disc length: 2934 seconds
#
# Revision: 0
# Processed by: cddbd v1.5.1PL0 Copyright (c) Steve Scherf et al.
# Submitted via: CDex 1.51
#
DISCID=7c0b740a
DTITLE=はじめての民族音楽 - ジンバブエ・哀愁のムビラ
DYEAR=1999
DGENRE=Ethnic
TTITLE0=タイレヴァ
TTITLE1=偉大なるシャミヌカ
TTITLE2=ニャマロパ
TTITLE3=大声で言うだろう（ヴァージョン1）
TTITLE4=大声で言うだろう（ヴァージョン2）
TTITLE5=ニャマロパ・イエヴァナ・ヴァヴァ・ムションガ
TTITLE6=ライオン
TTITLE7=ダング・ラング
TTITLE8=クマクード
TTITLE9=ニムティム
EXTD=YEAR: 1999
EXTT0=
EXTT1=
EXTT2=
EXTT3=
EXTT4=
EXTT5=
EXTT6=
EXTT7=
EXTT8=
EXTT9=
PLAYORDER=
